<?xml version="1.0" encoding="UTF-8"?>
<svg xmlns="http://www.w3.org/2000/svg" xmlns:xlink="http://www.w3.org/1999/xlink" viewBox="625 205 70 150">
<path fill-rule="nonzero" fill="#3A1810" d="M 663.292969 313.105469 L 662.96875 313.429688 L 662.96875 346.960938 L 663.292969 347.285156 L 672.863281 347.285156 L 673.1875 346.960938 L 673.1875 313.429688 L 672.863281 313.105469 Z M 679.496094 347.285156 L 686.78125 347.285156 C 687.644531 347.285156 689.332031 345.644531 689.402344 344.6875 C 689.492188 287.515625 689.710938 270.238281 689.292969 213.097656 C 689.109375 212.328125 687.480469 210.824219 686.78125 210.824219 L 679.496094 210.824219 L 679.496094 298.089844 L 656.660156 298.089844 L 656.660156 265.019531 L 646.65625 265.019531 L 646.65625 347.285156 L 656.660156 347.285156 L 656.660156 308.101562 L 679.496094 308.101562 Z M 656.660156 210.824219 L 646.65625 210.824219 L 646.65625 245.003906 L 656.660156 245.003906 Z M 640.132812 210.824219 L 632.847656 210.824219 C 632.148438 210.824219 630.515625 212.328125 630.335938 213.097656 C 629.917969 270.238281 630.136719 287.515625 630.226562 344.6875 C 630.296875 345.644531 631.984375 347.285156 632.847656 347.285156 L 640.132812 347.285156 L 640.132812 260.015625 L 662.96875 260.015625 L 662.96875 292.980469 L 663.292969 293.304688 L 672.644531 293.304688 L 672.972656 292.980469 L 672.972656 210.824219 L 662.96875 210.824219 L 662.96875 250.007812 L 640.132812 250.007812 Z M 640.132812 210.824219 "/>
</svg>
