<?xml version="1.0" encoding="UTF-8"?>
<svg xmlns="http://www.w3.org/2000/svg" xmlns:xlink="http://www.w3.org/1999/xlink" viewBox="570 195 185 215">
<path fill-rule="nonzero" fill="#3A1810" d="M 590.972656 398.398438 L 590.972656 398.113281 C 592.882812 398 594.402344 397.542969 594.828125 397.054688 C 595.0625 396.800781 595.101562 395.597656 595.140625 394.683594 C 595.21875 392.199219 595.179688 389.027344 595.179688 388.226562 L 581.75 388.226562 L 581.75 394.371094 C 581.75 395.425781 581.75 396.65625 582.136719 397.054688 C 582.761719 397.683594 584.203125 398.058594 585.292969 398.113281 L 585.292969 398.398438 L 571.941406 398.398438 L 571.941406 398.113281 C 573.222656 397.972656 574.703125 397.597656 575.328125 397.054688 C 575.753906 396.683594 575.832031 395.167969 575.871094 393.941406 C 575.910156 392.882812 575.949219 390.167969 575.949219 388.023438 L 575.949219 382.453125 C 575.949219 381.136719 575.949219 379.621094 575.367188 379.109375 C 574.625 378.480469 573.417969 378.222656 572.058594 378.109375 L 572.058594 377.820312 L 585.527344 377.820312 L 585.527344 378.109375 C 584.046875 378.25 581.90625 378.621094 581.828125 380.394531 C 581.710938 383.050781 581.75 386.910156 581.75 387.652344 L 595.179688 387.652344 C 595.179688 385.195312 595.21875 383.851562 595.140625 381.367188 C 595.101562 380.652344 595.101562 379.765625 594.671875 379.28125 C 593.738281 378.25 592.296875 378.136719 591.128906 378.109375 L 591.128906 377.820312 L 604.714844 377.820312 L 604.714844 378.109375 C 603.46875 378.222656 601.953125 378.59375 601.40625 379.367188 C 601.019531 379.910156 601.019531 381.335938 601.019531 382.507812 L 601.019531 387.394531 C 601.019531 390.167969 601.019531 391.742188 601.054688 394.511719 C 601.054688 395.597656 601.09375 396.65625 601.40625 397 C 602.070312 397.742188 603.429688 398 604.792969 398.113281 L 604.792969 398.398438 Z M 590.972656 398.398438 "/>
<path fill-rule="nonzero" fill="#3A1810" d="M 631.65625 379.878906 C 631.304688 380.453125 631.148438 382.453125 631.109375 384.195312 C 631.070312 385.824219 630.953125 387.683594 630.875 390.226562 C 630.796875 392.371094 630.679688 398.742188 619.160156 398.742188 C 607.753906 398.742188 607.519531 392.484375 607.519531 391.054688 C 607.519531 389.996094 607.558594 388.167969 607.558594 386.253906 L 607.558594 382.453125 C 607.558594 381.136719 607.558594 379.621094 606.976562 379.109375 C 606.234375 378.480469 605.03125 378.222656 603.667969 378.109375 L 603.667969 377.820312 L 617.175781 377.820312 L 617.175781 378.109375 C 615.695312 378.25 613.554688 378.621094 613.476562 380.394531 C 613.398438 382.367188 613.398438 383.253906 613.398438 385.308594 C 613.398438 386.625 613.4375 389.226562 613.476562 390.625 C 613.59375 394.683594 616.164062 397.457031 621.339844 397.457031 C 629.902344 397.457031 630.097656 392.539062 630.175781 388.625 C 630.214844 386.566406 630.175781 385.824219 630.175781 384.195312 C 630.175781 382.679688 630.136719 380.910156 629.746094 380.109375 C 629.242188 379.050781 627.917969 378.367188 625.425781 378.109375 L 625.425781 377.820312 L 635.390625 377.820312 L 635.390625 378.109375 C 633.484375 378.308594 632.277344 378.792969 631.65625 379.878906 "/>
<path fill-rule="nonzero" fill="#3A1810" d="M 641.621094 381.765625 C 640.765625 383.222656 639.011719 386.308594 636.949219 390.054688 L 646.019531 390.054688 C 644.460938 387.082031 642.671875 383.679688 641.621094 381.765625 M 645.941406 398.398438 L 645.941406 398.113281 C 647.03125 398.027344 649.054688 397.886719 649.054688 396.800781 C 649.054688 396.140625 647.886719 393.65625 646.332031 390.65625 L 636.597656 390.65625 C 635.820312 392.082031 635.160156 393.226562 634.457031 394.570312 C 633.914062 395.597656 633.640625 396.371094 633.640625 396.742188 C 633.640625 397.742188 635.511719 398 636.871094 398.113281 L 636.871094 398.398438 L 628.503906 398.398438 L 628.503906 398.085938 C 629.863281 397.972656 630.992188 397.398438 631.148438 397.257812 C 631.5 397 632.355469 396.054688 633.5625 394.113281 C 635.78125 390.511719 638.738281 385.367188 641.191406 381.082031 L 640.570312 380.050781 C 642.476562 379.566406 644.460938 378.308594 645.394531 377.421875 L 645.707031 377.421875 C 648.9375 383.765625 651.429688 388.652344 653.882812 393.484375 C 654.464844 394.65625 654.894531 395.3125 655.515625 396.285156 C 655.75 396.628906 656.878906 398 659.253906 398.058594 L 659.253906 398.398438 Z M 645.941406 398.398438 "/>
<path fill-rule="nonzero" fill="#3A1810" d="M 686.191406 379.878906 C 685.839844 380.453125 685.761719 382.195312 685.683594 383.9375 C 685.609375 385.566406 685.492188 387.882812 685.492188 390.425781 C 685.492188 392.597656 685.53125 395.769531 685.53125 398 C 685.53125 398.34375 685.335938 398.628906 684.792969 398.628906 C 684.363281 398.628906 684.089844 398.457031 683.855469 398.257812 C 675.175781 390.796875 670.195312 386.597656 663.34375 380.679688 L 663.34375 392.285156 C 663.34375 394.167969 663.421875 395.914062 663.925781 396.65625 C 664.511719 397.515625 665.835938 397.914062 667.9375 398.113281 L 667.9375 398.398438 L 658.046875 398.398438 L 658.046875 398.113281 C 659.296875 398 660.851562 397.683594 661.550781 396.855469 C 662.253906 396.054688 662.410156 394.457031 662.488281 392.285156 C 662.5625 390.65625 662.640625 388.339844 662.640625 385.796875 C 662.640625 383.625 662.679688 383.109375 662.601562 380.910156 C 662.175781 378.707031 659.839844 378.28125 658.320312 378.109375 L 658.320312 377.820312 L 667.507812 377.820312 L 684.832031 392.597656 L 684.832031 383.9375 C 684.832031 382.453125 684.832031 380.910156 684.441406 380.109375 C 683.933594 379.050781 682.535156 378.367188 680.042969 378.109375 L 680.042969 377.820312 L 690.007812 377.820312 L 690.007812 378.109375 C 688.097656 378.308594 686.8125 378.792969 686.191406 379.878906 "/>
<path fill-rule="nonzero" fill="#3A1810" d="M 715.464844 389.652344 C 715.074219 390.054688 715.074219 391.113281 715.074219 391.996094 L 715.074219 396.113281 C 714.296875 396.542969 708.964844 398.601562 703.867188 398.601562 C 693.746094 398.601562 687.945312 394.597656 687.945312 388.082031 C 687.945312 386.167969 688.765625 382.9375 692.421875 380.394531 C 694.992188 378.621094 698.492188 377.421875 703.828125 377.421875 C 710.289062 377.421875 713.402344 379.453125 713.675781 379.453125 C 713.753906 379.453125 714.257812 378.824219 714.960938 378.164062 L 715.351562 378.164062 L 715.351562 384.796875 L 714.882812 384.796875 C 714.296875 383.109375 712.9375 381.195312 711.574219 380.222656 C 709.820312 378.964844 707.292969 377.90625 703.867188 377.90625 C 697.871094 377.90625 694.367188 382.738281 694.367188 388.140625 C 694.367188 393.855469 697.523438 398.140625 703.632812 398.140625 C 705.578125 398.140625 707.488281 397.457031 708.574219 396.085938 C 708.964844 395.597656 709.199219 394.199219 709.199219 392.882812 C 709.199219 391.539062 709.042969 390.398438 708.265625 389.710938 C 707.71875 389.195312 706.238281 388.882812 704.957031 388.796875 L 704.957031 388.507812 L 718.152344 388.507812 L 718.152344 388.796875 C 717.179688 388.882812 715.933594 389.109375 715.464844 389.652344 "/>
<path fill-rule="nonzero" fill="#3A1810" d="M 718.542969 384.308594 L 718.542969 384.023438 C 720.605469 383.765625 722.164062 382.652344 722.164062 381.367188 C 722.164062 381.164062 722.085938 380.910156 722.007812 380.765625 C 721.539062 381.136719 720.800781 381.222656 720.527344 381.222656 C 719.089844 381.222656 718.347656 380.335938 718.347656 379.507812 C 718.347656 378.25 719.710938 377.535156 721.269531 377.535156 C 723.410156 377.535156 724.421875 378.824219 724.421875 380.367188 C 724.421875 382.539062 722.164062 384.308594 718.542969 384.308594 "/>
<path fill-rule="nonzero" fill="#3A1810" d="M 737.421875 398.65625 C 732.207031 398.65625 729.480469 397.285156 729.207031 397.285156 C 729.054688 397.285156 728.429688 397.941406 728 398.371094 L 727.652344 398.371094 L 727.535156 391.910156 L 727.925781 391.910156 C 728.898438 393.941406 731.46875 396.371094 733.296875 397.257812 C 734.113281 397.65625 735.667969 398.199219 737.148438 398.199219 C 740.691406 398.199219 743.066406 396.65625 743.066406 394.085938 C 743.066406 392.140625 741.082031 391.226562 738.550781 390.570312 C 736.914062 390.140625 734.96875 389.683594 732.945312 389.082031 C 729.832031 388.140625 727.730469 386.308594 727.730469 383.710938 C 727.730469 379.566406 732.90625 377.507812 737.851562 377.507812 C 742.714844 377.507812 744.972656 379.023438 745.324219 379.023438 C 745.480469 379.023438 746.101562 378.308594 746.492188 377.851562 L 746.917969 377.851562 L 746.917969 383.910156 L 746.492188 383.910156 C 745.207031 381.308594 741.898438 377.964844 738.277344 377.964844 C 735.125 377.964844 732.75 379.679688 732.75 381.765625 C 732.75 383.652344 734.851562 384.710938 737.265625 385.394531 C 738.707031 385.824219 740.574219 386.308594 742.363281 386.824219 C 746.21875 387.910156 748.359375 389.539062 748.359375 392.453125 C 748.359375 396.34375 743.339844 398.65625 737.421875 398.65625 "/>
<path fill-rule="nonzero" fill="#3A1810" d="M 663.292969 313.105469 L 662.96875 313.429688 L 662.96875 346.960938 L 663.292969 347.285156 L 672.863281 347.285156 L 673.1875 346.960938 L 673.1875 313.429688 L 672.863281 313.105469 Z M 679.496094 347.285156 L 686.78125 347.285156 C 687.644531 347.285156 689.332031 345.644531 689.402344 344.6875 C 689.492188 287.515625 689.710938 270.238281 689.292969 213.097656 C 689.109375 212.328125 687.480469 210.824219 686.78125 210.824219 L 679.496094 210.824219 L 679.496094 298.089844 L 656.660156 298.089844 L 656.660156 265.019531 L 646.65625 265.019531 L 646.65625 347.285156 L 656.660156 347.285156 L 656.660156 308.101562 L 679.496094 308.101562 Z M 656.660156 210.824219 L 646.65625 210.824219 L 646.65625 245.003906 L 656.660156 245.003906 Z M 640.132812 210.824219 L 632.847656 210.824219 C 632.148438 210.824219 630.515625 212.328125 630.335938 213.097656 C 629.917969 270.238281 630.136719 287.515625 630.226562 344.6875 C 630.296875 345.644531 631.984375 347.285156 632.847656 347.285156 L 640.132812 347.285156 L 640.132812 260.015625 L 662.96875 260.015625 L 662.96875 292.980469 L 663.292969 293.304688 L 672.644531 293.304688 L 672.972656 292.980469 L 672.972656 210.824219 L 662.96875 210.824219 L 662.96875 250.007812 L 640.132812 250.007812 Z M 640.132812 210.824219 "/>
</svg>
